<svg xmlns="http://www.w3.org/2000/svg" xmlns:xlink="http://www.w3.org/1999/xlink" width="500" zoomAndPan="magnify" viewBox="0 0 375 374.999991" height="500" preserveAspectRatio="xMidYMid meet" version="1.0"><defs><g/><clipPath id="8b3bf92321"><rect x="0" width="261" y="0" height="68"/></clipPath><clipPath id="53c57761cd"><path d="M 167.773438 176.835938 L 193.820312 176.835938 L 193.820312 191.957031 L 167.773438 191.957031 Z M 167.773438 176.835938 " clip-rule="nonzero"/></clipPath><clipPath id="48b1fa6e56"><path d="M 180.8125 176.835938 C 173.640625 176.835938 167.832031 180.21875 167.832031 184.394531 C 167.832031 188.570312 173.640625 191.957031 180.8125 191.957031 C 187.980469 191.957031 193.792969 188.570312 193.792969 184.394531 C 193.792969 180.21875 187.980469 176.835938 180.8125 176.835938 Z M 180.8125 176.835938 " clip-rule="nonzero"/></clipPath><clipPath id="cede4dfbc6"><path d="M 0.773438 0.835938 L 26.820312 0.835938 L 26.820312 15.957031 L 0.773438 15.957031 Z M 0.773438 0.835938 " clip-rule="nonzero"/></clipPath><clipPath id="d8af1aa88a"><path d="M 13.8125 0.835938 C 6.640625 0.835938 0.832031 4.21875 0.832031 8.394531 C 0.832031 12.570312 6.640625 15.957031 13.8125 15.957031 C 20.980469 15.957031 26.792969 12.570312 26.792969 8.394531 C 26.792969 4.21875 20.980469 0.835938 13.8125 0.835938 Z M 13.8125 0.835938 " clip-rule="nonzero"/></clipPath><clipPath id="3e986c1608"><rect x="0" width="27" y="0" height="16"/></clipPath><clipPath id="4476813703"><path d="M 167.832031 167.019531 L 174.171875 167.019531 L 174.171875 173.363281 L 167.832031 173.363281 Z M 167.832031 167.019531 " clip-rule="nonzero"/></clipPath><clipPath id="d29c16548a"><path d="M 171 167.019531 C 169.25 167.019531 167.832031 168.441406 167.832031 170.191406 C 167.832031 171.941406 169.25 173.363281 171 173.363281 C 172.753906 173.363281 174.171875 171.941406 174.171875 170.191406 C 174.171875 168.441406 172.753906 167.019531 171 167.019531 Z M 171 167.019531 " clip-rule="nonzero"/></clipPath><clipPath id="12496e4056"><path d="M 0.832031 0.0195312 L 7.171875 0.0195312 L 7.171875 6.363281 L 0.832031 6.363281 Z M 0.832031 0.0195312 " clip-rule="nonzero"/></clipPath><clipPath id="0c26116dcb"><path d="M 4 0.0195312 C 2.25 0.0195312 0.832031 1.441406 0.832031 3.191406 C 0.832031 4.941406 2.25 6.363281 4 6.363281 C 5.753906 6.363281 7.171875 4.941406 7.171875 3.191406 C 7.171875 1.441406 5.753906 0.0195312 4 0.0195312 Z M 4 0.0195312 " clip-rule="nonzero"/></clipPath><clipPath id="6a2fc65f8e"><rect x="0" width="8" y="0" height="7"/></clipPath><clipPath id="9f6be85f03"><path d="M 186.339844 167.019531 L 192.679688 167.019531 L 192.679688 173.363281 L 186.339844 173.363281 Z M 186.339844 167.019531 " clip-rule="nonzero"/></clipPath><clipPath id="dcb9a3fedb"><path d="M 189.511719 167.019531 C 187.761719 167.019531 186.339844 168.441406 186.339844 170.191406 C 186.339844 171.941406 187.761719 173.363281 189.511719 173.363281 C 191.261719 173.363281 192.679688 171.941406 192.679688 170.191406 C 192.679688 168.441406 191.261719 167.019531 189.511719 167.019531 Z M 189.511719 167.019531 " clip-rule="nonzero"/></clipPath><clipPath id="6896557026"><path d="M 0.339844 0.0195312 L 6.679688 0.0195312 L 6.679688 6.363281 L 0.339844 6.363281 Z M 0.339844 0.0195312 " clip-rule="nonzero"/></clipPath><clipPath id="1024d17ab4"><path d="M 3.511719 0.0195312 C 1.761719 0.0195312 0.339844 1.441406 0.339844 3.191406 C 0.339844 4.941406 1.761719 6.363281 3.511719 6.363281 C 5.261719 6.363281 6.679688 4.941406 6.679688 3.191406 C 6.679688 1.441406 5.261719 0.0195312 3.511719 0.0195312 Z M 3.511719 0.0195312 " clip-rule="nonzero"/></clipPath><clipPath id="4dc87d7abb"><rect x="0" width="7" y="0" height="7"/></clipPath><clipPath id="799f322b9d"><path d="M 108.460938 122.191406 L 124.445312 122.191406 L 124.445312 138.171875 L 108.460938 138.171875 Z M 108.460938 122.191406 " clip-rule="nonzero"/></clipPath><clipPath id="2e57671363"><path d="M 116.453125 122.191406 C 112.039062 122.191406 108.460938 125.769531 108.460938 130.183594 C 108.460938 134.59375 112.039062 138.171875 116.453125 138.171875 C 120.867188 138.171875 124.445312 134.59375 124.445312 130.183594 C 124.445312 125.769531 120.867188 122.191406 116.453125 122.191406 Z M 116.453125 122.191406 " clip-rule="nonzero"/></clipPath><clipPath id="a2c65042de"><path d="M 0.460938 0.191406 L 16.445312 0.191406 L 16.445312 16.171875 L 0.460938 16.171875 Z M 0.460938 0.191406 " clip-rule="nonzero"/></clipPath><clipPath id="8a65887cef"><path d="M 8.453125 0.191406 C 4.039062 0.191406 0.460938 3.769531 0.460938 8.183594 C 0.460938 12.59375 4.039062 16.171875 8.453125 16.171875 C 12.867188 16.171875 16.445312 12.59375 16.445312 8.183594 C 16.445312 3.769531 12.867188 0.191406 8.453125 0.191406 Z M 8.453125 0.191406 " clip-rule="nonzero"/></clipPath><clipPath id="3fac428d88"><rect x="0" width="17" y="0" height="17"/></clipPath></defs><g transform="matrix(1, 0, 0, 1, 50, 144)"><g clip-path="url(#8b3bf92321)"><g fill="#e53888" fill-opacity="1"><g transform="translate(0.960281, 47.866616)"><g><path d="M 3.21875 -25.46875 L 32.546875 -37.375 L 32.546875 -29.765625 L 13.359375 -22.25 L 32.546875 -14.859375 L 32.546875 -7.234375 L 3.21875 -19.140625 Z M 3.21875 -25.46875 "/></g></g></g><g fill="#e53888" fill-opacity="1"><g transform="translate(36.456319, 47.866616)"><g><path d="M 31.53125 -46.125 L 9.4375 6.4375 L 1.234375 6.4375 L 23.328125 -46.125 Z M 31.53125 -46.125 "/></g></g></g><g fill="#e53888" fill-opacity="1"><g transform="translate(69.217754, 47.866616)"><g><path d="M 26.765625 -9.109375 C 28.296875 -9.109375 29.785156 -9.34375 31.234375 -9.8125 C 32.679688 -10.28125 33.742188 -10.726562 34.421875 -11.15625 L 35.453125 -11.84375 L 39.734375 -3.265625 C 39.585938 -3.160156 39.390625 -3.019531 39.140625 -2.84375 C 38.890625 -2.664062 38.304688 -2.332031 37.390625 -1.84375 C 36.484375 -1.363281 35.507812 -0.941406 34.46875 -0.578125 C 33.4375 -0.222656 32.082031 0.09375 30.40625 0.375 C 28.726562 0.65625 26.992188 0.796875 25.203125 0.796875 C 21.085938 0.796875 17.1875 -0.207031 13.5 -2.21875 C 9.820312 -4.238281 6.859375 -7.019531 4.609375 -10.5625 C 2.359375 -14.101562 1.234375 -17.929688 1.234375 -22.046875 C 1.234375 -25.148438 1.894531 -28.128906 3.21875 -30.984375 C 4.539062 -33.847656 6.300781 -36.300781 8.5 -38.34375 C 10.695312 -40.382812 13.257812 -42.007812 16.1875 -43.21875 C 19.125 -44.4375 22.128906 -45.046875 25.203125 -45.046875 C 28.066406 -45.046875 30.703125 -44.703125 33.109375 -44.015625 C 35.523438 -43.335938 37.234375 -42.660156 38.234375 -41.984375 L 39.734375 -40.96875 L 35.453125 -32.390625 C 35.203125 -32.609375 34.820312 -32.867188 34.3125 -33.171875 C 33.8125 -33.472656 32.8125 -33.875 31.3125 -34.375 C 29.8125 -34.875 28.296875 -35.125 26.765625 -35.125 C 24.328125 -35.125 22.144531 -34.726562 20.21875 -33.9375 C 18.289062 -33.15625 16.757812 -32.117188 15.625 -30.828125 C 14.5 -29.546875 13.640625 -28.160156 13.046875 -26.671875 C 12.460938 -25.191406 12.171875 -23.679688 12.171875 -22.140625 C 12.171875 -18.785156 13.429688 -15.773438 15.953125 -13.109375 C 18.472656 -10.441406 22.078125 -9.109375 26.765625 -9.109375 Z M 26.765625 -9.109375 "/></g></g></g><g fill="#e53888" fill-opacity="1"><g transform="translate(109.606293, 47.866616)"><g/></g></g><g fill="#e53888" fill-opacity="1"><g transform="translate(124.244388, 47.866616)"><g/></g></g><g fill="#e53888" fill-opacity="1"><g transform="translate(138.882483, 47.866616)"><g/></g></g><g fill="#e53888" fill-opacity="1"><g transform="translate(153.527432, 47.866616)"><g><path d="M 3.21875 -44.234375 L 16.03125 -44.234375 C 22.175781 -44.234375 27.429688 -42.132812 31.796875 -37.9375 C 36.160156 -33.738281 38.34375 -28.472656 38.34375 -22.140625 C 38.34375 -15.785156 36.171875 -10.503906 31.828125 -6.296875 C 27.484375 -2.097656 22.21875 0 16.03125 0 L 3.21875 0 Z M 13.296875 -9.015625 L 14.859375 -9.015625 C 18.535156 -9.015625 21.546875 -10.253906 23.890625 -12.734375 C 26.234375 -15.222656 27.421875 -18.34375 27.453125 -22.09375 C 27.453125 -25.84375 26.28125 -28.96875 23.9375 -31.46875 C 21.601562 -33.976562 18.578125 -35.234375 14.859375 -35.234375 L 13.296875 -35.234375 Z M 13.296875 -9.015625 "/></g></g></g><g fill="#e53888" fill-opacity="1"><g transform="translate(193.098542, 47.866616)"><g><path d="M 28.53125 -44.234375 L 28.53125 -35.390625 L 13.296875 -35.390625 L 13.296875 -26.59375 L 27.890625 -26.59375 L 27.890625 -17.75 L 13.296875 -17.75 L 13.296875 -8.84375 L 28.53125 -8.84375 L 28.53125 0 L 3.21875 0 L 3.21875 -44.234375 Z M 28.53125 -44.234375 "/></g></g></g><g fill="#e53888" fill-opacity="1"><g transform="translate(224.197782, 47.866616)"><g><path d="M 2.953125 -14.859375 L 22.140625 -22.25 L 2.953125 -29.765625 L 2.953125 -37.375 L 32.28125 -25.46875 L 32.28125 -19.140625 L 2.953125 -7.234375 Z M 2.953125 -14.859375 "/></g></g></g></g></g><path fill="#e53888" d="M 191.910156 171.007812 C 191.910156 171.316406 191.851562 171.613281 191.734375 171.898438 C 191.613281 172.183594 191.445312 172.433594 191.230469 172.652344 C 191.011719 172.871094 190.761719 173.035156 190.476562 173.15625 C 190.191406 173.273438 189.894531 173.332031 189.585938 173.332031 C 189.277344 173.332031 188.984375 173.273438 188.699219 173.15625 C 188.414062 173.035156 188.164062 172.871094 187.945312 172.652344 C 187.726562 172.433594 187.558594 172.183594 187.441406 171.898438 C 187.324219 171.613281 187.265625 171.316406 187.265625 171.007812 C 187.265625 170.703125 187.324219 170.40625 187.441406 170.121094 C 187.558594 169.835938 187.726562 169.585938 187.945312 169.367188 C 188.164062 169.148438 188.414062 168.980469 188.699219 168.863281 C 188.984375 168.746094 189.277344 168.6875 189.585938 168.6875 C 189.894531 168.6875 190.191406 168.746094 190.476562 168.863281 C 190.761719 168.980469 191.011719 169.148438 191.230469 169.367188 C 191.445312 169.585938 191.613281 169.835938 191.734375 170.121094 C 191.851562 170.40625 191.910156 170.703125 191.910156 171.007812 Z M 191.910156 171.007812 " fill-opacity="1" fill-rule="nonzero"/><path fill="#e53888" d="M 173.101562 171.007812 C 173.101562 171.316406 173.039062 171.613281 172.921875 171.898438 C 172.804688 172.183594 172.636719 172.433594 172.417969 172.652344 C 172.203125 172.871094 171.949219 173.035156 171.667969 173.15625 C 171.382812 173.273438 171.085938 173.332031 170.777344 173.332031 C 170.46875 173.332031 170.171875 173.273438 169.890625 173.15625 C 169.605469 173.035156 169.351562 172.871094 169.136719 172.652344 C 168.917969 172.433594 168.75 172.183594 168.632812 171.898438 C 168.515625 171.613281 168.457031 171.316406 168.457031 171.007812 C 168.457031 170.703125 168.515625 170.40625 168.632812 170.121094 C 168.75 169.835938 168.917969 169.585938 169.136719 169.367188 C 169.351562 169.148438 169.605469 168.980469 169.890625 168.863281 C 170.171875 168.746094 170.46875 168.6875 170.777344 168.6875 C 171.085938 168.6875 171.382812 168.746094 171.667969 168.863281 C 171.949219 168.980469 172.203125 169.148438 172.417969 169.367188 C 172.636719 169.585938 172.804688 169.835938 172.921875 170.121094 C 173.039062 170.40625 173.101562 170.703125 173.101562 171.007812 Z M 173.101562 171.007812 " fill-opacity="1" fill-rule="nonzero"/><path fill="#e53888" d="M 180.230469 190.910156 C 178.613281 190.910156 177.066406 190.582031 175.585938 189.933594 C 174.914062 189.671875 174.292969 189.3125 173.726562 188.867188 C 173.160156 188.417969 172.667969 187.898438 172.257812 187.304688 C 171.84375 186.710938 171.523438 186.070312 171.300781 185.382812 C 171.074219 184.699219 170.957031 183.992188 170.941406 183.269531 L 170.941406 180.460938 C 170.941406 180.308594 170.96875 180.160156 171.027344 180.015625 C 171.085938 179.875 171.171875 179.75 171.28125 179.640625 C 171.390625 179.53125 171.515625 179.445312 171.65625 179.386719 C 171.800781 179.328125 171.945312 179.300781 172.101562 179.300781 L 188.355469 179.300781 C 188.511719 179.300781 188.660156 179.328125 188.800781 179.386719 C 188.941406 179.445312 189.070312 179.53125 189.175781 179.640625 C 189.285156 179.75 189.371094 179.875 189.429688 180.015625 C 189.488281 180.160156 189.515625 180.308594 189.515625 180.460938 L 189.515625 182.898438 C 189.472656 183.464844 189.371094 184.023438 189.21875 184.570312 C 189.0625 185.117188 188.855469 185.644531 188.601562 186.152344 C 188.34375 186.65625 188.039062 187.132812 187.6875 187.582031 C 187.339844 188.03125 186.949219 188.4375 186.515625 188.808594 C 186.085938 189.183594 185.625 189.507812 185.128906 189.789062 C 184.636719 190.070312 184.117188 190.300781 183.578125 190.480469 C 183.039062 190.660156 182.488281 190.785156 181.925781 190.859375 C 181.363281 190.929688 180.796875 190.949219 180.230469 190.910156 Z M 173.261719 181.621094 L 173.261719 183.269531 C 173.265625 183.78125 173.347656 184.277344 173.503906 184.761719 C 173.660156 185.246094 173.882812 185.695312 174.179688 186.113281 C 174.472656 186.527344 174.824219 186.890625 175.230469 187.195312 C 175.636719 187.503906 176.078125 187.742188 176.558594 187.914062 C 177.742188 188.433594 178.984375 188.695312 180.273438 188.703125 C 180.691406 188.742188 181.105469 188.738281 181.519531 188.695312 C 181.933594 188.652344 182.339844 188.570312 182.738281 188.445312 C 183.132812 188.324219 183.515625 188.164062 183.882812 187.96875 C 184.25 187.773438 184.597656 187.542969 184.917969 187.28125 C 185.242188 187.015625 185.535156 186.722656 185.800781 186.402344 C 186.066406 186.082031 186.296875 185.742188 186.496094 185.375 C 186.695312 185.007812 186.859375 184.628906 186.984375 184.230469 C 187.109375 183.835938 187.195312 183.429688 187.242188 183.015625 L 187.242188 181.738281 Z M 173.261719 181.621094 " fill-opacity="1" fill-rule="nonzero"/><path fill="#e53888" d="M 201.917969 169.453125 L 202.21875 168.222656 C 202.449219 167.34375 202.320312 166.523438 201.824219 165.761719 C 201.453125 165.183594 200.949219 164.765625 200.316406 164.507812 C 199.878906 163.550781 199.375 162.632812 198.808594 161.75 C 198.238281 160.867188 197.613281 160.027344 196.921875 159.234375 C 196.234375 158.441406 195.496094 157.703125 194.699219 157.015625 C 193.90625 156.328125 193.066406 155.699219 192.183594 155.132812 C 191.300781 154.5625 190.378906 154.0625 189.425781 153.625 C 188.46875 153.191406 187.488281 152.824219 186.480469 152.527344 C 185.472656 152.234375 184.449219 152.011719 183.410156 151.859375 C 182.371094 151.710938 181.324219 151.636719 180.273438 151.636719 C 179.226562 151.636719 178.179688 151.710938 177.140625 151.859375 C 176.101562 152.011719 175.078125 152.234375 174.070312 152.527344 C 173.0625 152.824219 172.082031 153.191406 171.125 153.625 C 170.167969 154.0625 169.25 154.5625 168.367188 155.132812 C 167.484375 155.699219 166.644531 156.328125 165.851562 157.015625 C 165.054688 157.703125 164.316406 158.441406 163.628906 159.234375 C 162.9375 160.027344 162.3125 160.867188 161.742188 161.75 C 161.175781 162.632812 160.671875 163.550781 160.234375 164.507812 C 159.59375 164.753906 159.082031 165.164062 158.703125 165.738281 C 158.242188 166.453125 158.105469 167.230469 158.285156 168.058594 L 158.609375 169.40625 C 158.453125 170.203125 158.34375 171.003906 158.277344 171.8125 C 158.210938 172.621094 158.1875 173.433594 158.210938 174.242188 C 158.234375 175.054688 158.300781 175.859375 158.414062 176.664062 C 158.527344 177.46875 158.679688 178.261719 158.878906 179.046875 C 159.082031 179.835938 159.324219 180.605469 159.605469 181.367188 C 159.890625 182.125 160.21875 182.867188 160.585938 183.589844 C 160.949219 184.316406 161.355469 185.015625 161.800781 185.695312 C 162.242188 186.375 162.722656 187.027344 163.238281 187.652344 C 163.753906 188.277344 164.304688 188.875 164.886719 189.4375 C 165.46875 190.003906 166.078125 190.535156 166.71875 191.035156 C 167.359375 191.53125 168.023438 191.992188 168.714844 192.417969 C 169.40625 192.84375 170.117188 193.226562 170.851562 193.574219 C 171.585938 193.921875 172.335938 194.226562 173.101562 194.488281 C 173.871094 194.75 174.648438 194.972656 175.441406 195.148438 C 176.234375 195.328125 177.03125 195.460938 177.835938 195.546875 C 178.644531 195.636719 179.453125 195.683594 180.261719 195.683594 C 181.074219 195.683594 181.882812 195.636719 182.691406 195.546875 C 183.496094 195.460938 184.292969 195.328125 185.085938 195.148438 C 185.878906 194.972656 186.65625 194.75 187.425781 194.488281 C 188.191406 194.226562 188.941406 193.921875 189.675781 193.574219 C 190.410156 193.226562 191.121094 192.84375 191.8125 192.417969 C 192.503906 191.992188 193.167969 191.53125 193.808594 191.035156 C 194.449219 190.535156 195.058594 190.003906 195.640625 189.4375 C 196.222656 188.875 196.773438 188.277344 197.289062 187.652344 C 197.804688 187.027344 198.285156 186.375 198.726562 185.695312 C 199.171875 185.015625 199.578125 184.316406 199.941406 183.589844 C 200.308594 182.867188 200.636719 182.125 200.921875 181.367188 C 201.203125 180.605469 201.445312 179.835938 201.648438 179.046875 C 201.847656 178.261719 202 177.46875 202.113281 176.664062 C 202.226562 175.859375 202.292969 175.054688 202.316406 174.242188 C 202.339844 173.433594 202.316406 172.621094 202.25 171.8125 C 202.183594 171.003906 202.074219 170.203125 201.917969 169.40625 Z M 180.230469 153.964844 C 182 153.964844 183.738281 154.195312 185.445312 154.664062 C 187.152344 155.132812 188.765625 155.816406 190.289062 156.722656 C 191.8125 157.625 193.1875 158.710938 194.414062 159.988281 C 195.644531 161.261719 196.679688 162.675781 197.527344 164.230469 L 184.664062 164.230469 C 184.292969 164.230469 183.933594 164.292969 183.585938 164.417969 C 183.238281 164.542969 182.921875 164.722656 182.636719 164.957031 C 182.351562 165.191406 182.113281 165.46875 181.921875 165.785156 C 181.734375 166.101562 181.601562 166.445312 181.527344 166.804688 L 179.019531 166.804688 C 178.949219 166.445312 178.816406 166.101562 178.628906 165.785156 C 178.4375 165.46875 178.199219 165.191406 177.914062 164.957031 C 177.628906 164.722656 177.3125 164.542969 176.964844 164.417969 C 176.613281 164.292969 176.257812 164.230469 175.886719 164.230469 L 162.976562 164.230469 C 163.824219 162.679688 164.859375 161.269531 166.085938 160 C 167.3125 158.730469 168.683594 157.644531 170.203125 156.742188 C 171.71875 155.839844 173.328125 155.152344 175.027344 154.683594 C 176.730469 154.210938 178.464844 153.972656 180.230469 153.964844 Z M 160.675781 167.015625 C 160.820312 166.800781 161.023438 166.667969 161.28125 166.621094 L 175.886719 166.621094 C 176.023438 166.621094 176.152344 166.648438 176.273438 166.707031 C 176.394531 166.769531 176.496094 166.851562 176.582031 166.957031 C 176.664062 167.0625 176.722656 167.183594 176.75 167.316406 C 176.78125 167.449219 176.777344 167.582031 176.746094 167.710938 L 175.121094 173.980469 C 175.015625 174.402344 174.789062 174.746094 174.449219 175.015625 C 174.105469 175.285156 173.71875 175.417969 173.285156 175.421875 L 163.972656 175.421875 C 163.53125 175.425781 163.132812 175.292969 162.785156 175.019531 C 162.4375 174.746094 162.214844 174.390625 162.117188 173.957031 L 160.953125 169.152344 L 160.582031 167.597656 C 160.535156 167.390625 160.566406 167.195312 160.675781 167.015625 Z M 180.230469 193.441406 C 179.042969 193.4375 177.871094 193.328125 176.703125 193.113281 C 175.539062 192.898438 174.402344 192.582031 173.296875 192.164062 C 172.1875 191.746094 171.125 191.230469 170.109375 190.621094 C 169.09375 190.011719 168.140625 189.316406 167.25 188.535156 C 166.359375 187.753906 165.546875 186.898438 164.8125 185.96875 C 164.074219 185.042969 163.425781 184.058594 162.867188 183.011719 C 162.308594 181.96875 161.84375 180.882812 161.480469 179.753906 C 161.117188 178.628906 160.855469 177.476562 160.699219 176.304688 C 160.867188 176.5 161.054688 176.675781 161.257812 176.839844 C 161.585938 177.082031 161.941406 177.277344 162.324219 177.417969 L 162.601562 177.417969 C 163.011719 177.550781 163.429688 177.621094 163.859375 177.628906 L 173.261719 177.628906 C 173.730469 177.625 174.1875 177.550781 174.628906 177.398438 C 175.074219 177.246094 175.480469 177.023438 175.851562 176.734375 C 176.21875 176.449219 176.535156 176.109375 176.789062 175.714844 C 177.046875 175.324219 177.234375 174.902344 177.347656 174.445312 L 178.742188 168.917969 L 181.738281 168.917969 L 183.039062 174.398438 C 183.132812 174.878906 183.308594 175.332031 183.558594 175.75 C 183.8125 176.171875 184.125 176.535156 184.503906 176.84375 C 184.886719 177.152344 185.304688 177.390625 185.769531 177.550781 C 186.230469 177.714844 186.707031 177.792969 187.195312 177.789062 L 196.484375 177.789062 C 197.136719 177.785156 197.757812 177.636719 198.339844 177.34375 C 198.925781 177.050781 199.414062 176.640625 199.804688 176.117188 C 199.65625 177.300781 199.40625 178.464844 199.046875 179.601562 C 198.691406 180.742188 198.234375 181.835938 197.675781 182.894531 C 197.121094 183.949219 196.472656 184.945312 195.734375 185.886719 C 195 186.824219 194.183594 187.6875 193.289062 188.480469 C 192.398438 189.269531 191.4375 189.972656 190.417969 190.589844 C 189.398438 191.207031 188.328125 191.730469 187.210938 192.152344 C 186.097656 192.578125 184.953125 192.898438 183.777344 193.113281 C 182.605469 193.332031 181.421875 193.441406 180.230469 193.441406 Z M 199.992188 167.640625 L 199.617188 169.128906 L 198.386719 173.980469 C 198.28125 174.402344 198.058594 174.746094 197.71875 175.015625 C 197.375 175.285156 196.988281 175.417969 196.554688 175.421875 L 187.195312 175.421875 C 186.753906 175.421875 186.359375 175.285156 186.011719 175.011719 C 185.664062 174.738281 185.441406 174.386719 185.335938 173.957031 L 183.804688 167.597656 C 183.742188 167.320312 183.796875 167.074219 183.96875 166.851562 C 184.144531 166.628906 184.378906 166.519531 184.664062 166.527344 L 199.269531 166.527344 C 199.527344 166.574219 199.730469 166.707031 199.875 166.921875 C 200.039062 167.140625 200.078125 167.382812 199.992188 167.640625 Z M 199.992188 167.640625 " fill-opacity="1" fill-rule="nonzero"/><g clip-path="url(#53c57761cd)"><g clip-path="url(#48b1fa6e56)"><g transform="matrix(1, 0, 0, 1, 167, 176)"><g clip-path="url(#3e986c1608)"><g clip-path="url(#cede4dfbc6)"><g clip-path="url(#d8af1aa88a)"><path fill="#ffffff" d="M 0.832031 0.835938 L 26.820312 0.835938 L 26.820312 15.957031 L 0.832031 15.957031 Z M 0.832031 0.835938 " fill-opacity="1" fill-rule="nonzero"/></g></g></g></g></g></g><g clip-path="url(#4476813703)"><g clip-path="url(#d29c16548a)"><g transform="matrix(1, 0, 0, 1, 167, 167)"><g clip-path="url(#6a2fc65f8e)"><g clip-path="url(#12496e4056)"><g clip-path="url(#0c26116dcb)"><path fill="#ffffff" d="M 0.832031 0.0195312 L 7.171875 0.0195312 L 7.171875 6.363281 L 0.832031 6.363281 Z M 0.832031 0.0195312 " fill-opacity="1" fill-rule="nonzero"/></g></g></g></g></g></g><g clip-path="url(#9f6be85f03)"><g clip-path="url(#dcb9a3fedb)"><g transform="matrix(1, 0, 0, 1, 186, 167)"><g clip-path="url(#4dc87d7abb)"><g clip-path="url(#6896557026)"><g clip-path="url(#1024d17ab4)"><path fill="#ffffff" d="M 0.339844 0.0195312 L 6.679688 0.0195312 L 6.679688 6.363281 L 0.339844 6.363281 Z M 0.339844 0.0195312 " fill-opacity="1" fill-rule="nonzero"/></g></g></g></g></g></g><g clip-path="url(#799f322b9d)"><g clip-path="url(#2e57671363)"><g transform="matrix(1, 0, 0, 1, 108, 122)"><g clip-path="url(#3fac428d88)"><g clip-path="url(#a2c65042de)"><g clip-path="url(#8a65887cef)"><path fill="#e53888" d="M 0.460938 0.191406 L 16.445312 0.191406 L 16.445312 16.171875 L 0.460938 16.171875 Z M 0.460938 0.191406 " fill-opacity="1" fill-rule="nonzero"/></g></g></g></g></g></g><g fill="#e53888" fill-opacity="1"><g transform="translate(144.979257, 219.64601)"><g><path d="M 8.046875 -4.5625 L 2.796875 -4.5625 L 1 0 L 0 0 L 5.1875 -12.96875 L 5.765625 -12.96875 L 10.859375 0 L 9.84375 0 Z M 3.125 -5.375 L 7.75 -5.375 L 5.984375 -10.03125 C 5.835938 -10.394531 5.660156 -10.898438 5.453125 -11.546875 C 5.296875 -10.984375 5.125 -10.472656 4.9375 -10.015625 Z M 3.125 -5.375 "/></g></g></g><g fill="#e53888" fill-opacity="1"><g transform="translate(158.751076, 219.64601)"><g><path d="M 1.828125 -12.921875 L 5.375 -12.921875 C 6.96875 -12.921875 8.140625 -12.648438 8.890625 -12.109375 C 9.640625 -11.566406 10.015625 -10.742188 10.015625 -9.640625 C 10.015625 -8.898438 9.785156 -8.28125 9.328125 -7.78125 C 8.867188 -7.28125 8.203125 -6.960938 7.328125 -6.828125 L 7.328125 -6.765625 C 8.359375 -6.609375 9.113281 -6.28125 9.59375 -5.78125 C 10.082031 -5.289062 10.328125 -4.597656 10.328125 -3.703125 C 10.328125 -2.515625 9.929688 -1.597656 9.140625 -0.953125 C 8.347656 -0.316406 7.226562 0 5.78125 0 L 1.828125 0 Z M 2.734375 -7.171875 L 5.578125 -7.171875 C 6.785156 -7.171875 7.664062 -7.367188 8.21875 -7.765625 C 8.769531 -8.171875 9.046875 -8.804688 9.046875 -9.671875 C 9.046875 -10.523438 8.734375 -11.144531 8.109375 -11.53125 C 7.492188 -11.925781 6.570312 -12.125 5.34375 -12.125 L 2.734375 -12.125 Z M 2.734375 -6.375 L 2.734375 -0.796875 L 5.765625 -0.796875 C 8.160156 -0.796875 9.359375 -1.765625 9.359375 -3.703125 C 9.359375 -5.484375 8.097656 -6.375 5.578125 -6.375 Z M 2.734375 -6.375 "/></g></g></g><g fill="#e53888" fill-opacity="1"><g transform="translate(173.008812, 219.64601)"><g><path d="M 8.046875 -4.5625 L 2.796875 -4.5625 L 1 0 L 0 0 L 5.1875 -12.96875 L 5.765625 -12.96875 L 10.859375 0 L 9.84375 0 Z M 3.125 -5.375 L 7.75 -5.375 L 5.984375 -10.03125 C 5.835938 -10.394531 5.660156 -10.898438 5.453125 -11.546875 C 5.296875 -10.984375 5.125 -10.472656 4.9375 -10.015625 Z M 3.125 -5.375 "/></g></g></g><g fill="#e53888" fill-opacity="1"><g transform="translate(186.780631, 219.64601)"><g><path d="M 10.515625 0 L 9.40625 0 L 4.453125 -6.828125 L 2.734375 -5.296875 L 2.734375 0 L 1.828125 0 L 1.828125 -12.921875 L 2.734375 -12.921875 L 2.734375 -6.203125 L 4.15625 -7.640625 L 9.21875 -12.921875 L 10.375 -12.921875 L 5.078125 -7.453125 Z M 10.515625 0 "/></g></g></g><g fill="#e53888" fill-opacity="1"><g transform="translate(200.207891, 219.64601)"><g><path d="M 12.125 0 L 11.375 0 L 8.546875 -9.96875 C 8.304688 -10.78125 8.128906 -11.453125 8.015625 -11.984375 C 7.921875 -11.472656 7.785156 -10.882812 7.609375 -10.21875 C 7.429688 -9.550781 6.484375 -6.144531 4.765625 0 L 4 0 L 0.453125 -12.921875 L 1.390625 -12.921875 L 3.65625 -4.59375 C 3.75 -4.257812 3.832031 -3.945312 3.90625 -3.65625 C 3.976562 -3.375 4.046875 -3.109375 4.109375 -2.859375 C 4.171875 -2.609375 4.226562 -2.363281 4.28125 -2.125 C 4.332031 -1.894531 4.378906 -1.664062 4.421875 -1.4375 C 4.554688 -2.226562 4.851562 -3.441406 5.3125 -5.078125 L 7.53125 -12.921875 L 8.53125 -12.921875 L 11.109375 -3.921875 C 11.410156 -2.890625 11.628906 -2.050781 11.765625 -1.40625 C 11.835938 -1.832031 11.929688 -2.285156 12.046875 -2.765625 C 12.171875 -3.242188 13.082031 -6.628906 14.78125 -12.921875 L 15.6875 -12.921875 Z M 12.125 0 "/></g></g></g><g fill="#e53888" fill-opacity="1"><g transform="translate(219.262944, 219.64601)"><g><path d="M 8.046875 -4.5625 L 2.796875 -4.5625 L 1 0 L 0 0 L 5.1875 -12.96875 L 5.765625 -12.96875 L 10.859375 0 L 9.84375 0 Z M 3.125 -5.375 L 7.75 -5.375 L 5.984375 -10.03125 C 5.835938 -10.394531 5.660156 -10.898438 5.453125 -11.546875 C 5.296875 -10.984375 5.125 -10.472656 4.9375 -10.015625 Z M 3.125 -5.375 "/></g></g></g></svg>